<svg width="20" height="20" viewBox="0 0 20 20" fill="none" xmlns="http://www.w3.org/2000/svg">
<path d="M10 14C10.5253 14 11.0454 13.8965 11.5307 13.6955C12.016 13.4945 12.457 13.1999 12.8284 12.8284C13.1999 12.457 13.4945 12.016 13.6955 11.5307C13.8965 11.0454 14 10.5253 14 10C14 9.47471 13.8965 8.95457 13.6955 8.46927C13.4945 7.98396 13.1999 7.54301 12.8284 7.17157C12.457 6.80014 12.016 6.5055 11.5307 6.30448C11.0454 6.10346 10.5253 6 10 6C8.93913 6 7.92172 6.42143 7.17157 7.17157C6.42143 7.92172 6 8.93913 6 10C6 11.0609 6.42143 12.0783 7.17157 12.8284C7.92172 13.5786 8.93913 14 10 14Z" stroke="#131212" stroke-width="1.7" stroke-linecap="round" stroke-linejoin="round"/>
<path d="M15 5H15.012" stroke="black" stroke-width="2" stroke-linecap="round" stroke-linejoin="round"/>
<rect x="0.85" y="0.85" width="18.3" height="18.3" rx="5.15" stroke="black" stroke-width="1.7"/>
</svg>
