<svg width="49" height="30" viewBox="0 0 49 30" fill="none" xmlns="http://www.w3.org/2000/svg">
<path d="M2 13C0.89543 13 -9.65645e-08 13.8954 0 15C9.65645e-08 16.1046 0.895431 17 2 17L2 13ZM48.4142 16.4142C49.1953 15.6332 49.1953 14.3668 48.4142 13.5858L35.6863 0.857861C34.9052 0.0768129 33.6389 0.076813 32.8579 0.857862C32.0768 1.63891 32.0768 2.90524 32.8579 3.68629L44.1716 15L32.8579 26.3137C32.0768 27.0948 32.0768 28.3611 32.8579 29.1421C33.6389 29.9232 34.9052 29.9232 35.6863 29.1421L48.4142 16.4142ZM2 17L47 17L47 13L2 13L2 17Z" fill="white" fill-opacity="0.75"/>
</svg>
